<?xml version="1.0" encoding="UTF-8"?>
<svg id="Layer_2" xmlns="http://www.w3.org/2000/svg" viewBox="0 0 719.6 719.6">
  <defs>
    <style>
      .cls-1 {
        fill: #54a4db;
      }
    </style>
  </defs>
  <polygon class="cls-1" points="409.13 294.52 438.85 398.58 581.61 436.72 657.77 357.58 627.47 251.48 485.44 215.9 409.13 294.52"/>
  <polygon class="cls-1" points="332.94 372.26 437.89 398.67 480.52 540.15 403.84 618.78 296.83 591.85 256.77 451.02 332.94 372.26"/>
  <polygon class="cls-1" points="484.85 214.46 378.55 187.41 302.22 266.61 272.62 162.97 389.57 39.71 495.26 65.78 527.59 170.65 484.85 214.46"/>
  <polygon class="cls-1" points="256.14 451.66 224.3 346.7 299.97 266.86 195.09 241.98 77.26 364.4 108.09 468.8 214.31 496.34 256.14 451.66"/>
</svg>