<?xml version="1.0" encoding="UTF-8"?>
<svg id="Layer_1" xmlns="http://www.w3.org/2000/svg" viewBox="0 0 1049.38 233.88">
  <defs>
    <style>
      .cls-1 {
        fill: #3fa9f5;
      }
    </style>
  </defs>
  <polygon class="cls-1" points="133.62 102.35 145.67 144.57 203.57 160.03 234.47 127.94 222.18 84.9 164.57 70.46 133.62 102.35"/>
  <polygon class="cls-1" points="102.71 133.89 145.28 144.6 162.57 201.99 131.47 233.88 88.06 222.96 71.82 165.83 102.71 133.89"/>
  <polygon class="cls-1" points="164.33 70.88 121.21 59.91 90.25 92.04 78.24 50 125.68 0 168.55 10.58 181.66 53.11 164.33 70.88"/>
  <polygon class="cls-1" points="72.56 165.09 59.65 123.52 90.34 91.13 47.8 80.05 0 129.7 12.51 172.05 55.59 183.22 72.56 165.09"/>
  <g>
    <path d="M282.94,54.91c0-10.38,8.41-17.79,18.79-17.79l47.72,2c43.53,0,63.37,22.49,63.37,55.38s-19.83,55.14-63.37,55.14l-28.35-1c-3.58,0-6.48,1.9-6.48,5.48v45.82c0,3.58-2.9,6.48-6.48,6.48l-18.73-1c-3.58,0-6.48-2.9-6.48-6.48V54.91ZM380.17,94.5c0-17.17-10.16-27.57-31.92-27.57l-27.14-1c-3.58,0-6.48,1.9-6.48,5.48v41.95c0,3.58,2.9,7.48,6.48,7.48l27.14,1c21.77,0,31.92-10.4,31.92-27.33Z"/>
    <path d="M406.77,145.53c0-45.47,30.72-65.3,62.4-65.3s62.4,19.83,62.4,65.3-30.96,65.3-62.4,65.3-62.4-19.83-62.4-65.3ZM502.3,145.53c0-27.33-14.99-39.42-33.13-39.42s-33.38,12.09-33.38,39.42,14.99,39.42,33.38,39.42,33.13-12.09,33.13-39.42Z"/>
    <path d="M543.29,39.12h17.19c3.8,0,6.88,3.08,6.88,6.88v155.53c0,3.8-3.08,6.88-6.88,6.88h-17.19c-3.8,0-6.88-3.08-6.88-6.88V46c0-3.8,3.08-6.88,6.88-6.88Z"/>
    <path d="M576.07,47.58c0-9.92,8.22-17.41,17.66-17.41s17.41,7.5,17.41,17.41-8.22,17.41-17.41,17.41-17.66-7.5-17.66-17.41ZM585.94,82.65h15.57c4.25,0,7.7,3.45,7.7,7.7v110.37c0,4.25-3.45,7.7-7.7,7.7h-15.57c-4.25,0-7.7-3.45-7.7-7.7v-110.37c0-4.25,3.45-7.7,7.7-7.7Z"/>
    <path d="M680.31,105.87c-16.93,0-29.26,10.16-29.26,30.71v65.83c0,3.31-2.69,6-6,6h-18.96c-3.31,0-6-2.69-6-6v-113.76c0-3.31,2.69-6,6-6h18.96c3.31,0,6,2.69,6,6v19.88h.97c2.42-10.88,14.51-28.3,41.11-28.3,24.67,0,43.78,15,43.78,49.1v73.09c0,3.31-2.69,6-6,6h-18.96c-3.31,0-6-2.69-6-6v-65.83c0-20.56-8.95-30.71-25.64-30.71Z"/>
    <path d="M741.98,175.52c0-26.12,20.56-33.62,43.53-36.76l23.46-3.14c12.33-1.69,15.96-3.87,15.96-10.4v-2.66c0-17.2-11.72-20.84-28.19-19.62-10.69.8-18.97,9.7-18.97,20.42h0c0,.22-.18.41-.41.41h-28.21c-.22,0-.41-.18-.41-.41v-5.16c0-24.43,16.69-37.97,54.17-37.97s52.48,13.3,52.48,41.12v79.68c0,4.08-3.31,7.38-7.38,7.38h-21.96c-.22,0-.41-.18-.41-.41v-22.09h-1.21c-2.66,7.01-14.03,24.91-42.08,24.91-21.28,0-40.39-10.16-40.39-35.31ZM824.93,164.88v-14.79c0-.35-.43-.55-.68-.29-2.3,2.33-7.8,3.58-14.07,4.45l-19.83,3.14c-13.3,1.93-17.41,7.98-17.41,15.48,0,9.67,6.53,15.48,19.59,15.48,19.83,0,32.41-13.3,32.41-23.46Z"/>
    <path d="M875.24,173.1v-65.86c0-.22-.18-.41-.41-.41h-20.23c-.22,0-.41-.18-.41-.41v-23.37c0-.22.18-.41.41-.41h20.23c.22,0,.41-.18.41-.41v-31.36c0-.22.18-.41.41-.41h30.15c.22,0,.41.18.41.41v31.36c0,.22.18.41.41.41h23.86c.22,0,.41.18.41.41v23.37c0,.22-.18.41-.41.41h-23.86c-.22,0-.41.18-.41.41v61.03c0,10.88,3.39,16.93,16.45,16.93,2.8,0,4.93,0,9.22-.44.24-.02.46.16.46.4v22.45c0,.19-.12.35-.3.4-5.25,1.4-11.19,2.1-17.59,2.1-23.7,0-39.18-10.4-39.18-37Z"/>
    <path d="M928.69,145.29c0-46.44,28.78-66.06,61.67-66.06s59.01,15.9,59.01,61.85c0,4.17-.22,6.56-.67,9.1-.03.19-.2.34-.4.34l-89.91,3c-.24,0-.43.21-.41.45,2.05,23.14,13.87,32.17,33.58,32.17,15.6,0,24.76-6.95,28.45-18.85.05-.17.21-.28.38-.28l26.76-1c.26,0,.46.25.4.51-6.91,28.19-28.82,43.33-56.71,43.33-32.65,0-62.16-17.62-62.16-64.54ZM1019.68,132.65c.23,0,.42-.2.41-.43-.86-17.44-10.06-29.28-30.21-29.28-18,0-29.34,11.01-31.63,31.26-.03.24.16.46.41.46l61.03-2Z"/>
  </g>
</svg>